<svg width="20" height="20" viewBox="0 0 20 20" fill="none" xmlns="http://www.w3.org/2000/svg">
<path d="M10 14.1667H11.25M10 18.3333H11.25M10 1.66666H11.25M14.5834 18.3333H15.8334C16.0544 18.3333 16.2663 18.2455 16.4226 18.0892C16.5789 17.933 16.6667 17.721 16.6667 17.5M14.5834 1.66666H15.8334C16.0544 1.66666 16.2663 1.75445 16.4226 1.91073C16.5789 2.06701 16.6667 2.27898 16.6667 2.49999V3.74999M16.6667 11.6667V14.1667H14.5834M16.6667 7.08332V8.33332M3.33337 8.33332V7.08332M3.33337 16.25V11.6667M3.33337 16.25C3.33337 16.8025 3.55287 17.3324 3.94357 17.7231C4.33427 18.1138 4.86417 18.3333 5.41671 18.3333H6.66671M3.33337 16.25C3.33337 15.6975 3.55287 15.1676 3.94357 14.7769C4.33427 14.3861 4.86417 14.1667 5.41671 14.1667H6.66671M3.33337 3.74999C3.33337 3.19746 3.55287 2.66755 3.94357 2.27685C4.33427 1.88615 4.86417 1.66666 5.41671 1.66666H6.66671" stroke="#424242" stroke-width="2" stroke-linecap="round" stroke-linejoin="round"/>
</svg>
