<svg width="20" height="20" viewBox="0 0 20 20" fill="none" xmlns="http://www.w3.org/2000/svg">
<g clip-path="url(#clip0_76_978)">
<path d="M8.94418 4.22999C10.8853 3.99866 12.8489 4.409 14.5349 5.39836C16.221 6.38772 17.5369 7.90172 18.2817 9.70916C18.3511 9.89625 18.3511 10.1021 18.2817 10.2892C17.9754 11.0317 17.5707 11.7296 17.0783 12.3642M11.7367 11.7983C11.2652 12.2537 10.6337 12.5057 9.97818 12.5C9.32269 12.4943 8.69565 12.2314 8.23213 11.7679C7.76861 11.3043 7.50569 10.6773 7.5 10.0218C7.4943 9.36633 7.74629 8.73483 8.20168 8.26332M14.5658 14.5825C13.4604 15.2373 12.2271 15.6467 10.9495 15.7828C9.6719 15.919 8.37997 15.7787 7.16137 15.3716C5.94277 14.9644 4.82601 14.2999 3.88686 13.4231C2.94771 12.5463 2.20814 11.4778 1.71835 10.29C1.6489 10.1029 1.6489 9.89709 1.71835 9.70999C2.45721 7.9182 3.75724 6.41436 5.42335 5.42416M1.66668 1.66666L18.3333 18.3333" stroke="#424242" stroke-width="2" stroke-linecap="round" stroke-linejoin="round"/>
</g>
<defs>
<clipPath id="clip0_76_978">
<rect width="20" height="20" fill="white"/>
</clipPath>
</defs>
</svg>
