<svg width="20" height="20" viewBox="0 0 20 20" fill="none" xmlns="http://www.w3.org/2000/svg">
<path d="M16.7674 15.3577C16.7674 15.5938 16.6076 15.7639 16.3785 15.7639C16.1424 15.7639 15.9896 15.5833 15.9896 15.3577C15.9896 15.132 16.1424 14.9514 16.3785 14.9514C16.6076 14.9514 16.7674 15.132 16.7674 15.3577ZM5.9757 14.9514C5.72917 14.9514 5.58681 15.132 5.58681 15.3577C5.58681 15.5833 5.72917 15.7639 5.9757 15.7639C6.20139 15.7639 6.35417 15.5938 6.35417 15.3577C6.35069 15.132 6.20139 14.9514 5.9757 14.9514ZM10.0556 14.941C9.86806 14.941 9.75347 15.0625 9.72569 15.2431H10.3889C10.3576 15.0452 10.2361 14.941 10.0556 14.941ZM13.7986 14.9514C13.5625 14.9514 13.4201 15.132 13.4201 15.3577C13.4201 15.5833 13.5625 15.7639 13.7986 15.7639C14.0347 15.7639 14.1875 15.5938 14.1875 15.3577C14.1875 15.132 14.0347 14.9514 13.7986 14.9514ZM17.4757 15.8577C17.4757 15.8681 17.4861 15.875 17.4861 15.8958C17.4861 15.9063 17.4757 15.9132 17.4757 15.934C17.4653 15.9445 17.4653 15.9514 17.4583 15.9618C17.4479 15.9722 17.441 15.9792 17.4201 15.9792C17.4097 15.9896 17.4028 15.9896 17.3819 15.9896C17.3715 15.9896 17.3646 15.9896 17.3438 15.9792C17.3333 15.9792 17.3264 15.9688 17.316 15.9618C17.3056 15.9514 17.2986 15.9445 17.2986 15.934C17.2882 15.9167 17.2882 15.9063 17.2882 15.8958C17.2882 15.8785 17.2882 15.8681 17.2986 15.8577C17.2986 15.8403 17.309 15.8299 17.316 15.8195C17.3264 15.809 17.3333 15.809 17.3438 15.8021C17.3611 15.7917 17.3715 15.7917 17.3819 15.7917C17.3993 15.7917 17.4097 15.7917 17.4201 15.8021C17.4375 15.8125 17.4479 15.8125 17.4583 15.8195C17.4688 15.8264 17.4653 15.8403 17.4757 15.8577ZM17.3993 15.9063C17.4167 15.9063 17.4167 15.8958 17.4271 15.8958C17.4375 15.8854 17.4375 15.8785 17.4375 15.8681C17.4375 15.8577 17.4375 15.8507 17.4271 15.8403C17.4167 15.8403 17.4097 15.8299 17.3889 15.8299H17.3333V15.9514H17.3611V15.9028H17.3715L17.4097 15.9514H17.4375L17.3993 15.9063ZM20 3.92362V16.1458C20 17.066 19.2535 17.8125 18.3333 17.8125H1.66667C0.746528 17.8125 0 17.066 0 16.1458V3.92362C0 3.00349 0.746528 2.25696 1.66667 2.25696H18.3333C19.2535 2.25696 20 3.00349 20 3.92362ZM2.22222 8.77085C2.22222 11.4271 4.37847 13.5799 7.03125 13.5799C7.97569 13.5799 8.90278 13.2952 9.6875 12.7778C7.15625 10.7188 7.17361 6.83335 9.6875 4.77432C8.90278 4.25349 7.97569 3.97224 7.03125 3.97224C4.37847 3.96876 2.22222 6.12501 2.22222 8.77085ZM10 12.5486C12.4479 10.6389 12.4375 6.91668 10 4.99654C7.5625 6.91668 7.55208 10.6424 10 12.5486ZM5.05903 15.1979C5.05903 14.8958 4.86111 14.6979 4.54861 14.6875C4.38889 14.6875 4.21875 14.7361 4.10417 14.9132C4.02083 14.7708 3.87847 14.6875 3.68056 14.6875C3.54861 14.6875 3.41667 14.7361 3.3125 14.875V14.7222H3.02778V15.9965H3.3125C3.3125 15.3403 3.22569 14.9479 3.625 14.9479C3.97917 14.9479 3.90972 15.3021 3.90972 15.9965H4.18403C4.18403 15.3611 4.09722 14.9479 4.49653 14.9479C4.85069 14.9479 4.78125 15.2952 4.78125 15.9965H5.06597V15.1979H5.05903ZM6.61806 14.7222H6.34375V14.875C6.25 14.7604 6.11806 14.6875 5.9375 14.6875C5.57986 14.6875 5.30556 14.9722 5.30556 15.3577C5.30556 15.7465 5.57986 16.0278 5.9375 16.0278C6.11806 16.0278 6.25 15.9618 6.34375 15.8403V16H6.61806V14.7222ZM8.02431 15.6111C8.02431 15.0903 7.22917 15.3264 7.22917 15.0833C7.22917 14.8854 7.64236 14.9167 7.87153 15.0452L7.98611 14.8195C7.65972 14.6077 6.9375 14.6111 6.9375 15.1042C6.9375 15.6007 7.73264 15.3924 7.73264 15.625C7.73264 15.8438 7.26389 15.8264 7.01389 15.6528L6.89236 15.8715C7.28125 16.1354 8.02431 16.0799 8.02431 15.6111ZM9.25347 15.934L9.17708 15.6979C9.04514 15.7708 8.75347 15.8507 8.75347 15.5556V14.9792H9.20833V14.7222H8.75347V14.3333H8.46875V14.7222H8.20486V14.9757H8.46875V15.5556C8.46875 16.1667 9.06944 16.0556 9.25347 15.934ZM9.71528 15.4688H10.6701C10.6701 14.9063 10.4132 14.684 10.066 14.684C9.69792 14.684 9.43403 14.9583 9.43403 15.3542C9.43403 16.066 10.2188 16.184 10.6076 15.8472L10.4757 15.6389C10.2049 15.8611 9.79514 15.8403 9.71528 15.4688ZM11.7674 14.7222C11.6076 14.6528 11.3646 14.6597 11.2396 14.875V14.7222H10.9549V15.9965H11.2396V15.2778C11.2396 14.875 11.5694 14.9271 11.684 14.9861L11.7674 14.7222ZM12.1354 15.3577C12.1354 14.9618 12.5382 14.8333 12.8542 15.066L12.9861 14.8403C12.5833 14.5243 11.8507 14.6979 11.8507 15.3611C11.8507 16.0486 12.6285 16.1875 12.9861 15.882L12.8542 15.6563C12.5347 15.882 12.1354 15.7465 12.1354 15.3577ZM14.4514 14.7222H14.1667V14.875C13.8785 14.4931 13.1285 14.7083 13.1285 15.3577C13.1285 16.0243 13.9063 16.2153 14.1667 15.8403V16H14.4514V14.7222ZM15.6215 14.7222C15.5382 14.6806 15.2396 14.6215 15.0938 14.875V14.7222H14.8194V15.9965H15.0938V15.2778C15.0938 14.8958 15.4063 14.9202 15.5382 14.9861L15.6215 14.7222ZM17.0208 14.2049H16.7465V14.875C16.4618 14.4965 15.7083 14.6979 15.7083 15.3577C15.7083 16.0313 16.4896 16.2118 16.7465 15.8403V16H17.0208V14.2049ZM17.2847 11.5972V11.757H17.3125V11.5972H17.3785V11.5695H17.2188V11.5972H17.2847ZM17.5139 15.8958C17.5139 15.8785 17.5139 15.8577 17.5035 15.8403C17.4931 15.8299 17.4861 15.8125 17.4757 15.8021C17.4653 15.7917 17.4479 15.7847 17.4375 15.7743C17.4201 15.7743 17.3993 15.7639 17.3819 15.7639C17.3715 15.7639 17.3542 15.7743 17.3333 15.7743C17.316 15.7847 17.3056 15.7917 17.2951 15.8021C17.2778 15.8125 17.2674 15.8299 17.2674 15.8403C17.2569 15.8577 17.2569 15.8785 17.2569 15.8958C17.2569 15.9063 17.2569 15.9236 17.2674 15.9445C17.2674 15.9549 17.2778 15.9722 17.2951 15.9827C17.3056 15.9931 17.3125 16 17.3333 16.0104C17.3507 16.0208 17.3715 16.0208 17.3819 16.0208C17.3993 16.0208 17.4201 16.0208 17.4375 16.0104C17.4479 16 17.4653 15.9931 17.4757 15.9827C17.4861 15.9722 17.4931 15.9549 17.5035 15.9445C17.5139 15.9236 17.5139 15.9063 17.5139 15.8958ZM17.625 11.566H17.5764L17.5208 11.6875L17.4653 11.566H17.4167V11.7535H17.4444V11.6111L17.5 11.7327H17.5382L17.5868 11.6111V11.7535H17.625V11.566ZM17.7778 8.77085C17.7778 6.12501 15.6215 3.96876 12.9688 3.96876C12.0243 3.96876 11.0972 4.25349 10.3125 4.77085C12.816 6.82987 12.8542 10.7257 10.3125 12.7743C11.0972 13.2952 12.0313 13.5764 12.9688 13.5764C15.6215 13.5799 17.7778 11.4271 17.7778 8.77085Z" fill="#424242"/>
</svg>
