<svg width="20" height="20" viewBox="0 0 20 20" fill="none" xmlns="http://www.w3.org/2000/svg">
<path d="M9.99999 5.83333V17.5M9.99999 5.83333C9.99999 4.94928 9.6488 4.10143 9.02368 3.47631C8.39856 2.85119 7.55071 2.5 6.66666 2.5H2.49999C2.27898 2.5 2.06701 2.5878 1.91073 2.74408C1.75445 2.90036 1.66666 3.11232 1.66666 3.33333V14.1667C1.66666 14.3877 1.75445 14.5996 1.91073 14.7559C2.06701 14.9122 2.27898 15 2.49999 15H7.49999C8.16303 15 8.79892 15.2634 9.26776 15.7322C9.7366 16.2011 9.99999 16.837 9.99999 17.5M9.99999 5.83333C9.99999 4.94928 10.3512 4.10143 10.9763 3.47631C11.6014 2.85119 12.4493 2.5 13.3333 2.5H17.5C17.721 2.5 17.933 2.5878 18.0892 2.74408C18.2455 2.90036 18.3333 3.11232 18.3333 3.33333V14.1667C18.3333 14.3877 18.2455 14.5996 18.0892 14.7559C17.933 14.9122 17.721 15 17.5 15H12.5C11.8369 15 11.2011 15.2634 10.7322 15.7322C10.2634 16.2011 9.99999 16.837 9.99999 17.5M13.3333 10H15M13.3333 6.66667H15M4.99999 10H6.66666M4.99999 6.66667H6.66666" stroke="#424242" stroke-width="2" stroke-linecap="round" stroke-linejoin="round"/>
</svg>
