<svg width="20" height="20" viewBox="0 0 20 20" fill="none" xmlns="http://www.w3.org/2000/svg">
<path d="M16.6667 8.33335C16.6667 12.4942 12.0508 16.8275 10.5008 18.1659C10.3564 18.2744 10.1807 18.3331 9.99999 18.3331C9.81933 18.3331 9.64356 18.2744 9.49916 18.1659C7.94916 16.8275 3.33333 12.4942 3.33333 8.33335C3.33333 6.56524 4.03571 4.86955 5.28595 3.61931C6.53619 2.36907 8.23188 1.66669 9.99999 1.66669C11.7681 1.66669 13.4638 2.36907 14.714 3.61931C15.9643 4.86955 16.6667 6.56524 16.6667 8.33335Z" stroke="#424242" stroke-width="2" stroke-linecap="round" stroke-linejoin="round"/>
<path d="M9.99999 10.8334C11.3807 10.8334 12.5 9.71407 12.5 8.33335C12.5 6.95264 11.3807 5.83335 9.99999 5.83335C8.61928 5.83335 7.49999 6.95264 7.49999 8.33335C7.49999 9.71407 8.61928 10.8334 9.99999 10.8334Z" stroke="#424242" stroke-width="2" stroke-linecap="round" stroke-linejoin="round"/>
</svg>
