<svg width="20" height="20" viewBox="0 0 20 20" fill="none" xmlns="http://www.w3.org/2000/svg">
<g clip-path="url(#clip0_76_880)">
<path d="M15 16.6667C15 15.3406 14.4732 14.0688 13.5355 13.1311C12.5978 12.1934 11.3261 11.6667 10 11.6667M10 11.6667C8.67391 11.6667 7.40215 12.1934 6.46446 13.1311C5.52678 14.0688 5 15.3406 5 16.6667M10 11.6667C11.8409 11.6667 13.3333 10.1743 13.3333 8.33332C13.3333 6.49237 11.8409 4.99999 10 4.99999C8.15905 4.99999 6.66666 6.49237 6.66666 8.33332C6.66666 10.1743 8.15905 11.6667 10 11.6667ZM18.3333 9.99999C18.3333 14.6024 14.6024 18.3333 10 18.3333C5.39762 18.3333 1.66666 14.6024 1.66666 9.99999C1.66666 5.39762 5.39762 1.66666 10 1.66666C14.6024 1.66666 18.3333 5.39762 18.3333 9.99999Z" stroke="#424242" stroke-width="2" stroke-linecap="round" stroke-linejoin="round"/>
</g>
<defs>
<clipPath id="clip0_76_880">
<rect width="20" height="20" fill="white"/>
</clipPath>
</defs>
</svg>
