<svg width="20" height="20" viewBox="0 0 20 20" fill="none" xmlns="http://www.w3.org/2000/svg">
<path d="M10 0C15.5228 0 20 4.47715 20 10C20 15.5228 15.5228 20 10 20C4.47715 20 0 15.5228 0 10C0 4.47715 4.47715 0 10 0ZM8.5166 5.94336C8.20795 5.75723 7.82273 5.75172 7.50879 5.92871C7.19477 6.10602 7.00007 6.43919 7 6.7998V13.2002C7.00014 13.5521 7.18519 13.8782 7.4873 14.0586C7.78959 14.239 8.16479 14.2471 8.47461 14.0801L14.0752 11.0576C14.3909 10.8871 14.591 10.5599 14.5996 10.2012C14.608 9.8425 14.4234 9.50661 14.1162 9.32129L8.5166 5.94336Z" fill="#424242"/>
</svg>
