<svg width="20" height="20" viewBox="0 0 20 20" fill="none" xmlns="http://www.w3.org/2000/svg">
<path d="M13.3333 10.8333L17.6858 13.735C17.7486 13.7768 17.8215 13.8007 17.8968 13.8043C17.972 13.8079 18.0469 13.791 18.1133 13.7555C18.1798 13.7199 18.2353 13.6669 18.2741 13.6023C18.3128 13.5376 18.3333 13.4637 18.3333 13.3883V6.55833C18.3334 6.48502 18.314 6.413 18.2773 6.34954C18.2406 6.28608 18.1878 6.23344 18.1242 6.19692C18.0606 6.1604 17.9886 6.1413 17.9153 6.14155C17.8419 6.14179 17.77 6.16138 17.7067 6.19833L13.3333 8.75M3.33333 5H11.6667C12.5871 5 13.3333 5.74619 13.3333 6.66667V13.3333C13.3333 14.2538 12.5871 15 11.6667 15H3.33333C2.41286 15 1.66667 14.2538 1.66667 13.3333V6.66667C1.66667 5.74619 2.41286 5 3.33333 5Z" stroke="#424242" stroke-width="2" stroke-linecap="round" stroke-linejoin="round"/>
</svg>
