<svg width="20" height="20" viewBox="0 0 20 20" fill="none" xmlns="http://www.w3.org/2000/svg">
<path d="M10 16.6667H17.5M13.6467 3.01833C13.9784 2.68658 14.4284 2.50021 14.8975 2.50021C15.3667 2.50021 15.8166 2.68658 16.1483 3.01833C16.4801 3.35007 16.6665 3.80001 16.6665 4.26916C16.6665 4.73831 16.4801 5.18825 16.1483 5.51999L6.14001 15.5292C5.94175 15.7274 5.69669 15.8724 5.42751 15.9508L3.03417 16.6492C2.96247 16.6701 2.88646 16.6713 2.8141 16.6528C2.74174 16.6343 2.6757 16.5966 2.62288 16.5438C2.57006 16.491 2.53241 16.4249 2.51388 16.3526C2.49534 16.2802 2.49659 16.2042 2.51751 16.1325L3.21584 13.7392C3.29436 13.4703 3.43938 13.2255 3.63751 13.0275L13.6467 3.01833Z" stroke="#424242" stroke-width="2" stroke-linecap="round" stroke-linejoin="round"/>
</svg>
