<svg width="16" height="16" viewBox="0 0 16 16" fill="none" xmlns="http://www.w3.org/2000/svg">
<path d="M2.66669 13V2.99998C2.66669 2.55795 2.84228 2.13403 3.15484 1.82147C3.4674 1.50891 3.89133 1.33331 4.33335 1.33331H12.6667C12.8435 1.33331 13.0131 1.40355 13.1381 1.52858C13.2631 1.6536 13.3334 1.82317 13.3334 1.99998V14C13.3334 14.1768 13.2631 14.3464 13.1381 14.4714C13.0131 14.5964 12.8435 14.6666 12.6667 14.6666H4.33335C3.89133 14.6666 3.4674 14.4911 3.15484 14.1785C2.84228 13.8659 2.66669 13.442 2.66669 13ZM2.66669 13C2.66669 12.558 2.84228 12.134 3.15484 11.8215C3.4674 11.5089 3.89133 11.3333 4.33335 11.3333H13.3334M5.33335 7.33331H10.6667M5.33335 4.66665H9.33335" stroke="#424242" stroke-width="2" stroke-linecap="round" stroke-linejoin="round"/>
</svg>
