<svg width="16" height="16" viewBox="0 0 16 16" fill="none" xmlns="http://www.w3.org/2000/svg">
<path d="M7.99996 11.3333H8.99996M7.99996 14.6666H8.99996M7.99996 1.33331H8.99996M11.6666 14.6666H12.6666C12.8434 14.6666 13.013 14.5964 13.138 14.4714C13.2631 14.3464 13.3333 14.1768 13.3333 14M11.6666 1.33331H12.6666C12.8434 1.33331 13.013 1.40355 13.138 1.52858C13.2631 1.6536 13.3333 1.82317 13.3333 1.99998V2.99998M13.3333 9.33331V11.3333H11.6666M13.3333 5.66665V6.66665M2.66663 6.66665V5.66665M2.66663 13V9.33331M2.66663 13C2.66663 13.442 2.84222 13.8659 3.15478 14.1785C3.46734 14.4911 3.89127 14.6666 4.33329 14.6666H5.33329M2.66663 13C2.66663 12.558 2.84222 12.134 3.15478 11.8215C3.46734 11.5089 3.89127 11.3333 4.33329 11.3333H5.33329M2.66663 2.99998C2.66663 2.55795 2.84222 2.13403 3.15478 1.82147C3.46734 1.50891 3.89127 1.33331 4.33329 1.33331H5.33329" stroke="#424242" stroke-width="2" stroke-linecap="round" stroke-linejoin="round"/>
</svg>
