<svg width="16" height="16" viewBox="0 0 16 16" fill="none" xmlns="http://www.w3.org/2000/svg">
<path d="M13.4139 12.2861C13.4139 12.475 13.2861 12.6111 13.1028 12.6111C12.9139 12.6111 12.7917 12.4667 12.7917 12.2861C12.7917 12.1055 12.9139 11.9611 13.1028 11.9611C13.2861 11.9611 13.4139 12.1055 13.4139 12.2861ZM4.78056 11.9611C4.58333 11.9611 4.46944 12.1055 4.46944 12.2861C4.46944 12.4667 4.58333 12.6111 4.78056 12.6111C4.96111 12.6111 5.08333 12.475 5.08333 12.2861C5.08056 12.1055 4.96111 11.9611 4.78056 11.9611ZM8.04445 11.9528C7.89444 11.9528 7.80278 12.05 7.78056 12.1944H8.31111C8.28611 12.0361 8.18889 11.9528 8.04445 11.9528ZM11.0389 11.9611C10.85 11.9611 10.7361 12.1055 10.7361 12.2861C10.7361 12.4667 10.85 12.6111 11.0389 12.6111C11.2278 12.6111 11.35 12.475 11.35 12.2861C11.35 12.1055 11.2278 11.9611 11.0389 11.9611ZM13.9806 12.6861C13.9806 12.6944 13.9889 12.7 13.9889 12.7167C13.9889 12.725 13.9806 12.7305 13.9806 12.7472C13.9722 12.7555 13.9722 12.7611 13.9667 12.7694C13.9583 12.7778 13.9528 12.7833 13.9361 12.7833C13.9278 12.7917 13.9222 12.7917 13.9056 12.7917C13.8972 12.7917 13.8917 12.7917 13.875 12.7833C13.8667 12.7833 13.8611 12.775 13.8528 12.7694C13.8444 12.7611 13.8389 12.7555 13.8389 12.7472C13.8306 12.7333 13.8306 12.725 13.8306 12.7167C13.8306 12.7028 13.8306 12.6944 13.8389 12.6861C13.8389 12.6722 13.8472 12.6639 13.8528 12.6555C13.8611 12.6472 13.8667 12.6472 13.875 12.6417C13.8889 12.6333 13.8972 12.6333 13.9056 12.6333C13.9194 12.6333 13.9278 12.6333 13.9361 12.6417C13.95 12.65 13.9583 12.65 13.9667 12.6555C13.975 12.6611 13.9722 12.6722 13.9806 12.6861ZM13.9194 12.725C13.9333 12.725 13.9333 12.7167 13.9417 12.7167C13.95 12.7083 13.95 12.7028 13.95 12.6944C13.95 12.6861 13.95 12.6805 13.9417 12.6722C13.9333 12.6722 13.9278 12.6639 13.9111 12.6639H13.8667V12.7611H13.8889V12.7222H13.8972L13.9278 12.7611H13.95L13.9194 12.725ZM16 3.13888V12.9167C16 13.6528 15.4028 14.25 14.6667 14.25H1.33333C0.597222 14.25 0 13.6528 0 12.9167V3.13888C0 2.40276 0.597222 1.80554 1.33333 1.80554H14.6667C15.4028 1.80554 16 2.40276 16 3.13888ZM1.77778 7.01665C1.77778 9.14165 3.50278 10.8639 5.625 10.8639C6.38056 10.8639 7.12222 10.6361 7.75 10.2222C5.725 8.57499 5.73889 5.46665 7.75 3.81943C7.12222 3.40276 6.38056 3.17776 5.625 3.17776C3.50278 3.17499 1.77778 4.89999 1.77778 7.01665ZM8 10.0389C9.95833 8.5111 9.95 5.53332 8 3.99721C6.05 5.53332 6.04167 8.51387 8 10.0389ZM4.04722 12.1583C4.04722 11.9167 3.88889 11.7583 3.63889 11.75C3.51111 11.75 3.375 11.7889 3.28333 11.9305C3.21667 11.8167 3.10278 11.75 2.94444 11.75C2.83889 11.75 2.73333 11.7889 2.65 11.9V11.7778H2.42222V12.7972H2.65C2.65 12.2722 2.58056 11.9583 2.9 11.9583C3.18333 11.9583 3.12778 12.2417 3.12778 12.7972H3.34722C3.34722 12.2889 3.27778 11.9583 3.59722 11.9583C3.88056 11.9583 3.825 12.2361 3.825 12.7972H4.05278V12.1583H4.04722ZM5.29444 11.7778H5.075V11.9C5 11.8083 4.89444 11.75 4.75 11.75C4.46389 11.75 4.24444 11.9778 4.24444 12.2861C4.24444 12.5972 4.46389 12.8222 4.75 12.8222C4.89444 12.8222 5 12.7694 5.075 12.6722V12.8H5.29444V11.7778ZM6.41944 12.4889C6.41944 12.0722 5.78333 12.2611 5.78333 12.0667C5.78333 11.9083 6.11389 11.9333 6.29722 12.0361L6.38889 11.8555C6.12778 11.6861 5.55 11.6889 5.55 12.0833C5.55 12.4805 6.18611 12.3139 6.18611 12.5C6.18611 12.675 5.81111 12.6611 5.61111 12.5222L5.51389 12.6972C5.825 12.9083 6.41944 12.8639 6.41944 12.4889ZM7.40278 12.7472L7.34167 12.5583C7.23611 12.6167 7.00278 12.6805 7.00278 12.4444V11.9833H7.36667V11.7778H7.00278V11.4667H6.775V11.7778H6.56389V11.9805H6.775V12.4444C6.775 12.9333 7.25556 12.8444 7.40278 12.7472ZM7.77222 12.375H8.53611C8.53611 11.925 8.33056 11.7472 8.05278 11.7472C7.75833 11.7472 7.54722 11.9667 7.54722 12.2833C7.54722 12.8528 8.175 12.9472 8.48611 12.6778L8.38056 12.5111C8.16389 12.6889 7.83611 12.6722 7.77222 12.375ZM9.41389 11.7778C9.28611 11.7222 9.09167 11.7278 8.99167 11.9V11.7778H8.76389V12.7972H8.99167V12.2222C8.99167 11.9 9.25556 11.9417 9.34722 11.9889L9.41389 11.7778ZM9.70833 12.2861C9.70833 11.9694 10.0306 11.8667 10.2833 12.0528L10.3889 11.8722C10.0667 11.6194 9.48056 11.7583 9.48056 12.2889C9.48056 12.8389 10.1028 12.95 10.3889 12.7055L10.2833 12.525C10.0278 12.7055 9.70833 12.5972 9.70833 12.2861ZM11.5611 11.7778H11.3333V11.9C11.1028 11.5944 10.5028 11.7667 10.5028 12.2861C10.5028 12.8194 11.125 12.9722 11.3333 12.6722V12.8H11.5611V11.7778ZM12.4972 11.7778C12.4306 11.7444 12.1917 11.6972 12.075 11.9V11.7778H11.8556V12.7972H12.075V12.2222C12.075 11.9167 12.325 11.9361 12.4306 11.9889L12.4972 11.7778ZM13.6167 11.3639H13.3972V11.9C13.1694 11.5972 12.5667 11.7583 12.5667 12.2861C12.5667 12.825 13.1917 12.9694 13.3972 12.6722V12.8H13.6167V11.3639ZM13.8278 9.27776V9.40554H13.85V9.27776H13.9028V9.25554H13.775V9.27776H13.8278ZM14.0111 12.7167C14.0111 12.7028 14.0111 12.6861 14.0028 12.6722C13.9944 12.6639 13.9889 12.65 13.9806 12.6417C13.9722 12.6333 13.9583 12.6278 13.95 12.6194C13.9361 12.6194 13.9194 12.6111 13.9056 12.6111C13.8972 12.6111 13.8833 12.6194 13.8667 12.6194C13.8528 12.6278 13.8444 12.6333 13.8361 12.6417C13.8222 12.65 13.8139 12.6639 13.8139 12.6722C13.8056 12.6861 13.8056 12.7028 13.8056 12.7167C13.8056 12.725 13.8056 12.7389 13.8139 12.7555C13.8139 12.7639 13.8222 12.7778 13.8361 12.7861C13.8444 12.7944 13.85 12.8 13.8667 12.8083C13.8806 12.8167 13.8972 12.8167 13.9056 12.8167C13.9194 12.8167 13.9361 12.8167 13.95 12.8083C13.9583 12.8 13.9722 12.7944 13.9806 12.7861C13.9889 12.7778 13.9944 12.7639 14.0028 12.7555C14.0111 12.7389 14.0111 12.725 14.0111 12.7167ZM14.1 9.25276H14.0611L14.0167 9.34999L13.9722 9.25276H13.9333V9.40276H13.9556V9.28887L14 9.3861H14.0306L14.0694 9.28887V9.40276H14.1V9.25276ZM14.2222 7.01665C14.2222 4.89999 12.4972 3.17499 10.375 3.17499C9.61944 3.17499 8.87778 3.40276 8.25 3.81665C10.2528 5.46388 10.2833 8.58054 8.25 10.2194C8.87778 10.6361 9.625 10.8611 10.375 10.8611C12.4972 10.8639 14.2222 9.14165 14.2222 7.01665Z" fill="#424242"/>
</svg>
