<svg width="16" height="16" viewBox="0 0 16 16" fill="none" xmlns="http://www.w3.org/2000/svg">
<path d="M8.00001 4.66667V14M8.00001 4.66667C8.00001 3.95942 7.71906 3.28115 7.21896 2.78105C6.71886 2.28095 6.04059 2 5.33334 2H2.00001C1.8232 2 1.65363 2.07024 1.52861 2.19526C1.40358 2.32029 1.33334 2.48986 1.33334 2.66667V11.3333C1.33334 11.5101 1.40358 11.6797 1.52861 11.8047C1.65363 11.9298 1.8232 12 2.00001 12H6.00001C6.53044 12 7.03915 12.2107 7.41422 12.5858C7.7893 12.9609 8.00001 13.4696 8.00001 14M8.00001 4.66667C8.00001 3.95942 8.28096 3.28115 8.78106 2.78105C9.28116 2.28095 9.95943 2 10.6667 2H14C14.1768 2 14.3464 2.07024 14.4714 2.19526C14.5964 2.32029 14.6667 2.48986 14.6667 2.66667V11.3333C14.6667 11.5101 14.5964 11.6797 14.4714 11.8047C14.3464 11.9298 14.1768 12 14 12H10C9.46958 12 8.96087 12.2107 8.5858 12.5858C8.21072 12.9609 8.00001 13.4696 8.00001 14M10.6667 8H12M10.6667 5.33333H12M4.00001 8H5.33334M4.00001 5.33333H5.33334" stroke="#424242" stroke-width="2" stroke-linecap="round" stroke-linejoin="round"/>
</svg>
