<svg width="16" height="16" viewBox="0 0 16 16" fill="none" xmlns="http://www.w3.org/2000/svg">
<g clip-path="url(#clip0_289_25)">
<path d="M9.22134 11.0454C9.35903 11.1086 9.51414 11.1231 9.66114 11.0863C9.80813 11.0496 9.93823 10.9639 10.03 10.8434L10.2667 10.5334C10.3909 10.3678 10.5519 10.2334 10.7371 10.1408C10.9222 10.0482 11.1263 10 11.3333 10H13.3333C13.687 10 14.0261 10.1405 14.2762 10.3906C14.5262 10.6406 14.6667 10.9798 14.6667 11.3334V13.3334C14.6667 13.687 14.5262 14.0261 14.2762 14.2762C14.0261 14.5262 13.687 14.6667 13.3333 14.6667C10.1507 14.6667 7.0985 13.4024 4.84806 11.152C2.59763 8.90155 1.33334 5.8493 1.33334 2.66671C1.33334 2.31309 1.47382 1.97395 1.72387 1.7239C1.97392 1.47385 2.31305 1.33337 2.66668 1.33337H4.66668C5.0203 1.33337 5.35944 1.47385 5.60949 1.7239C5.85953 1.97395 6.00001 2.31309 6.00001 2.66671V4.66671C6.00001 4.8737 5.95182 5.07785 5.85925 5.26299C5.76668 5.44813 5.63227 5.60918 5.46668 5.73337L5.15468 5.96737C5.03229 6.06083 4.94602 6.19376 4.91054 6.34361C4.87505 6.49345 4.89253 6.65096 4.96001 6.78937C5.87113 8.63995 7.36963 10.1366 9.22134 11.0454Z" stroke="#424242" stroke-width="2" stroke-linecap="round" stroke-linejoin="round"/>
</g>
<defs>
<clipPath id="clip0_289_25">
<rect width="16" height="16" fill="white"/>
</clipPath>
</defs>
</svg>
