<svg width="16" height="16" viewBox="0 0 16 16" fill="none" xmlns="http://www.w3.org/2000/svg">
<path d="M13.3333 6.66671C13.3333 9.99537 9.64067 13.462 8.40067 14.5327C8.28515 14.6196 8.14454 14.6665 8 14.6665C7.85547 14.6665 7.71486 14.6196 7.59934 14.5327C6.35934 13.462 2.66667 9.99537 2.66667 6.66671C2.66667 5.25222 3.22857 3.89567 4.22877 2.89547C5.22896 1.89528 6.58552 1.33337 8 1.33337C9.41449 1.33337 10.771 1.89528 11.7712 2.89547C12.7714 3.89567 13.3333 5.25222 13.3333 6.66671Z" stroke="#424242" stroke-width="2" stroke-linecap="round" stroke-linejoin="round"/>
<path d="M8 8.66671C9.10457 8.66671 10 7.77128 10 6.66671C10 5.56214 9.10457 4.66671 8 4.66671C6.89544 4.66671 6 5.56214 6 6.66671C6 7.77128 6.89544 8.66671 8 8.66671Z" stroke="#424242" stroke-width="2" stroke-linecap="round" stroke-linejoin="round"/>
</svg>
