<svg width="16" height="16" viewBox="0 0 16 16" fill="none" xmlns="http://www.w3.org/2000/svg">
<g clip-path="url(#clip0_76_882)">
<path d="M12 13.3333C12 12.2725 11.5786 11.2551 10.8284 10.5049C10.0783 9.75477 9.06087 9.33334 8 9.33334M8 9.33334C6.93914 9.33334 5.92172 9.75477 5.17158 10.5049C4.42143 11.2551 4 12.2725 4 13.3333M8 9.33334C9.47276 9.33334 10.6667 8.13944 10.6667 6.66668C10.6667 5.19392 9.47276 4.00001 8 4.00001C6.52724 4.00001 5.33334 5.19392 5.33334 6.66668C5.33334 8.13944 6.52724 9.33334 8 9.33334ZM14.6667 8.00001C14.6667 11.6819 11.6819 14.6667 8 14.6667C4.3181 14.6667 1.33334 11.6819 1.33334 8.00001C1.33334 4.31811 4.3181 1.33334 8 1.33334C11.6819 1.33334 14.6667 4.31811 14.6667 8.00001Z" stroke="#424242" stroke-width="2" stroke-linecap="round" stroke-linejoin="round"/>
</g>
<defs>
<clipPath id="clip0_76_882">
<rect width="16" height="16" fill="white"/>
</clipPath>
</defs>
</svg>
