<svg width="16" height="16" viewBox="0 0 16 16" fill="none" xmlns="http://www.w3.org/2000/svg">
<path d="M8 0C12.4183 0 16 3.58172 16 8C16 12.4183 12.4183 16 8 16C3.58172 16 0 12.4183 0 8C0 3.58172 3.58172 0 8 0ZM6.91699 4.58398C6.60834 4.39781 6.22315 4.39234 5.90918 4.56934C5.5951 4.74668 5.40039 5.07974 5.40039 5.44043V10.5605C5.40058 10.9123 5.58565 11.2386 5.8877 11.4189C6.18994 11.5991 6.56532 11.6075 6.875 11.4404L11.3555 9.02246C11.6709 8.85206 11.871 8.52541 11.8799 8.16699C11.8885 7.80831 11.7036 7.4716 11.3965 7.28613L6.91699 4.58398Z" fill="#424242"/>
</svg>
