<svg width="40" height="40" viewBox="0 0 40 40" fill="none" xmlns="http://www.w3.org/2000/svg">
<path d="M6.66669 32.5V7.49998C6.66669 6.39491 7.10567 5.3351 7.88708 4.5537C8.66848 3.7723 9.72828 3.33331 10.8334 3.33331H31.6667C32.1087 3.33331 32.5326 3.50891 32.8452 3.82147C33.1578 4.13403 33.3334 4.55795 33.3334 4.99998V35C33.3334 35.442 33.1578 35.8659 32.8452 36.1785C32.5326 36.4911 32.1087 36.6666 31.6667 36.6666H10.8334C9.72828 36.6666 8.66848 36.2277 7.88708 35.4463C7.10567 34.6649 6.66669 33.605 6.66669 32.5ZM6.66669 32.5C6.66669 31.3949 7.10567 30.3351 7.88708 29.5537C8.66848 28.7723 9.72828 28.3333 10.8334 28.3333H33.3334M13.3334 18.3333H26.6667M13.3334 11.6666H23.3334" stroke="#424242" stroke-width="2" stroke-linecap="round" stroke-linejoin="round"/>
</svg>
