<svg width="40" height="40" viewBox="0 0 40 40" fill="none" xmlns="http://www.w3.org/2000/svg">
<path d="M20 11.6667V35M20 11.6667C20 9.89856 19.2976 8.20286 18.0474 6.95262C16.7971 5.70238 15.1015 5 13.3333 5H5.00001C4.55798 5 4.13406 5.17559 3.8215 5.48816C3.50894 5.80072 3.33334 6.22464 3.33334 6.66667V28.3333C3.33334 28.7754 3.50894 29.1993 3.8215 29.5118C4.13406 29.8244 4.55798 30 5.00001 30H15C16.3261 30 17.5979 30.5268 18.5355 31.4645C19.4732 32.4021 20 33.6739 20 35M20 11.6667C20 9.89856 20.7024 8.20286 21.9526 6.95262C23.2029 5.70238 24.8986 5 26.6667 5H35C35.442 5 35.866 5.17559 36.1785 5.48816C36.4911 5.80072 36.6667 6.22464 36.6667 6.66667V28.3333C36.6667 28.7754 36.4911 29.1993 36.1785 29.5118C35.866 29.8244 35.442 30 35 30H25C23.6739 30 22.4022 30.5268 21.4645 31.4645C20.5268 32.4021 20 33.6739 20 35M26.6667 20H30M26.6667 13.3333H30M10 20H13.3333M10 13.3333H13.3333" stroke="#424242" stroke-width="2" stroke-linecap="round" stroke-linejoin="round"/>
</svg>
