<svg width="40" height="40" viewBox="0 0 40 40" fill="none" xmlns="http://www.w3.org/2000/svg">
<path d="M20 0C31.0457 0 40 8.9543 40 20C40 31.0457 31.0457 40 20 40C8.9543 40 0 31.0457 0 20C0 8.9543 8.9543 0 20 0ZM16.5166 12.7432C16.208 12.5571 15.8227 12.5516 15.5088 12.7285C15.1948 12.9058 15.0001 13.2391 15 13.5996V26.3994C15 26.7515 15.185 27.0783 15.4873 27.2588C15.7897 27.4392 16.1647 27.4465 16.4746 27.2793L27.6748 21.2354C27.9906 21.0648 28.1916 20.7377 28.2002 20.3789C28.2086 20.0204 28.0238 19.6844 27.7168 19.499L16.5166 12.7432Z" fill="#424242"/>
</svg>
